<svg version="1.1" xmlns="http://www.w3.org/2000/svg" viewBox="0 0 437.67864990234375 286.8035583496094" width="875.3572998046875" height="573.6071166992188">
  <!-- svg-source:excalidraw -->
  
  <defs>
    <style class="style-fonts">
      @font-face {
        font-family: "Virgil";
        src: url("https://excalidraw.com/Virgil.woff2");
      }
      @font-face {
        font-family: "Cascadia";
        src: url("https://excalidraw.com/Cascadia.woff2");
      }
    </style>
  </defs>
  <rect x="0" y="0" width="437.67864990234375" height="286.8035583496094" fill="#ffffff"></rect><g stroke-linecap="round" transform="translate(10 109.5535888671875) rotate(0 37.72320556640625 30)"><path d="M28.41 1.51 C35.28 -0.33, 44.99 0.24, 51.77 2.25 C58.55 4.26, 65.15 8.83, 69.08 13.58 C73.01 18.32, 75.81 24.99, 75.36 30.74 C74.91 36.49, 71.12 43.41, 66.38 48.08 C61.65 52.75, 53.99 57.21, 46.96 58.76 C39.93 60.3, 31.01 59.4, 24.18 57.35 C17.35 55.31, 9.98 51.24, 5.97 46.47 C1.96 41.7, -0.38 34.45, 0.13 28.73 C0.64 23.01, 3.83 16.79, 9.04 12.16 C14.25 7.54, 26.74 2.91, 31.39 0.98 C36.03 -0.95, 36.68 0.25, 36.9 0.57 M21.22 3.48 C27.45 0.28, 37.62 -1.54, 44.78 -0.77 C51.93 0, 59.05 3.81, 64.16 8.09 C69.27 12.36, 74.55 18.76, 75.43 24.89 C76.3 31.01, 73.17 39.39, 69.4 44.83 C65.63 50.26, 59.41 54.86, 52.78 57.52 C46.15 60.18, 36.83 61.86, 29.61 60.78 C22.4 59.7, 14.21 55.36, 9.49 51.04 C4.76 46.72, 1.89 40.67, 1.27 34.85 C0.65 29.04, 2.57 21.64, 5.76 16.15 C8.96 10.67, 17.76 4.12, 20.45 1.94 C23.13 -0.24, 21.54 2.67, 21.88 3.07" stroke="#000000" stroke-width="1" fill="none"></path></g><g transform="translate(17.22320556640625 127.0535888671875) rotate(0 30.5 12.5)"><text x="30.5" y="17" font-family="Virgil, Segoe UI Emoji" font-size="20px" fill="#000000" text-anchor="middle" style="white-space: pre;" direction="ltr">编译器</text></g><g stroke-linecap="round" transform="translate(257.767822265625 10) rotate(0 59.375 17.5)"><path d="M8.75 0 M8.75 0 C46.23 1.36, 78.05 -0.42, 110 0 M8.75 0 C36.41 -0.67, 63.81 -0.78, 110 0 M110 0 C116.36 1.4, 120.22 3.05, 118.75 8.75 M110 0 C116.5 0.83, 120.35 1.11, 118.75 8.75 M118.75 8.75 C118.72 15.1, 117.48 20.7, 118.75 26.25 M118.75 8.75 C119.23 12.07, 118.08 16.68, 118.75 26.25 M118.75 26.25 C119.46 32.73, 115.91 33.03, 110 35 M118.75 26.25 C120.2 32.47, 115.63 36.85, 110 35 M110 35 C85.13 34.67, 57.95 36.33, 8.75 35 M110 35 C74.26 34.17, 39.11 34.58, 8.75 35 M8.75 35 C1.8 35.56, -0.72 32.02, 0 26.25 M8.75 35 C4.14 33.85, -2.14 33.46, 0 26.25 M0 26.25 C1.01 21.74, 0.54 12.03, 0 8.75 M0 26.25 C-0.67 20.65, -0.29 14.69, 0 8.75 M0 8.75 C1.16 2.04, 4.48 -2, 8.75 0 M0 8.75 C-1.96 1.24, 2.81 -1.93, 8.75 0" stroke="#000000" stroke-width="1" fill="none"></path></g><g transform="translate(289.642822265625 15) rotate(0 27.5 12.5)"><text x="27.5" y="17" font-family="Virgil, Segoe UI Emoji" font-size="20px" fill="#000000" text-anchor="middle" style="white-space: pre;" direction="ltr">csapp</text></g><g stroke-linecap="round" transform="translate(307.91058349609375 92.28570556640625) rotate(0 59.375 17.5)"><path d="M8.75 0 M8.75 0 C43.58 -1.35, 78.92 0.24, 110 0 M8.75 0 C46.34 -1.18, 84.22 -1.02, 110 0 M110 0 C114.93 -0.72, 117.42 2.2, 118.75 8.75 M110 0 C117.59 -0.76, 118.68 0.9, 118.75 8.75 M118.75 8.75 C119 16.03, 118.89 21.49, 118.75 26.25 M118.75 8.75 C118.38 14.72, 119.4 18.73, 118.75 26.25 M118.75 26.25 C118.61 34.05, 117.05 36.42, 110 35 M118.75 26.25 C117.34 30.44, 116.89 34.82, 110 35 M110 35 C80.62 36.68, 50.59 35.51, 8.75 35 M110 35 C88.94 34.37, 69.19 34.39, 8.75 35 M8.75 35 C2.36 35.35, 1.72 34.01, 0 26.25 M8.75 35 C2.8 34.97, 1.36 33.02, 0 26.25 M0 26.25 C0.22 23.12, 1.42 18.63, 0 8.75 M0 26.25 C0.37 21.37, -0.19 17.97, 0 8.75 M0 8.75 C1.27 3.72, 3.03 -1.36, 8.75 0 M0 8.75 C1.06 0.93, 1.06 0.28, 8.75 0" stroke="#000000" stroke-width="1" fill="none"></path></g><g transform="translate(346.78558349609375 97.28570556640625) rotate(0 20.5 12.5)"><text x="20.5" y="17" font-family="Virgil, Segoe UI Emoji" font-size="20px" fill="#000000" text-anchor="middle" style="white-space: pre;" direction="ltr">龙书</text></g><g stroke-linecap="round" transform="translate(308.92864990234375 169.482177734375) rotate(0 59.375 17.5)"><path d="M8.75 0 M8.75 0 C43.3 -0.48, 81.53 1.68, 110 0 M8.75 0 C45.8 0.8, 84.43 0.02, 110 0 M110 0 C115.15 1.75, 120.02 3.72, 118.75 8.75 M110 0 C115.97 -1.56, 119.81 0.93, 118.75 8.75 M118.75 8.75 C120.04 13.73, 118.74 16.37, 118.75 26.25 M118.75 8.75 C118.3 14.86, 118.46 21.68, 118.75 26.25 M118.75 26.25 C119.09 31.86, 116.2 35.77, 110 35 M118.75 26.25 C120.05 30.1, 117.93 36.01, 110 35 M110 35 C83.99 34.11, 57.33 33.01, 8.75 35 M110 35 C78.34 34.21, 46.32 35.01, 8.75 35 M8.75 35 C1.78 33.42, -1.6 30.8, 0 26.25 M8.75 35 C2.13 35.42, 1.87 34.22, 0 26.25 M0 26.25 C0.37 20.31, -1.1 15.59, 0 8.75 M0 26.25 C0.4 22.12, -0.26 17.56, 0 8.75 M0 8.75 C1.75 2.52, 3.68 -1.96, 8.75 0 M0 8.75 C-2.13 2, 2.25 2.1, 8.75 0" stroke="#000000" stroke-width="1" fill="none"></path></g><g transform="translate(336.30364990234375 174.482177734375) rotate(0 32 12.5)"><text x="32" y="17" font-family="Virgil, Segoe UI Emoji" font-size="20px" fill="#000000" text-anchor="middle" style="white-space: pre;" direction="ltr">C 语言</text></g><g stroke-linecap="round" transform="translate(258.14288330078125 241.80355834960938) rotate(0 59.375 17.5)"><path d="M8.75 0 M8.75 0 C41.83 -1.54, 75.85 -1.66, 110 0 M8.75 0 C44.78 0, 79.05 1.79, 110 0 M110 0 C117.29 -0.46, 120.37 1.96, 118.75 8.75 M110 0 C114.55 1.3, 118.05 1.85, 118.75 8.75 M118.75 8.75 C118.88 15.68, 119.59 19.79, 118.75 26.25 M118.75 8.75 C118.91 14.3, 118 20.23, 118.75 26.25 M118.75 26.25 C118.94 32.87, 114.39 33.51, 110 35 M118.75 26.25 C118.83 33, 114.8 33.13, 110 35 M110 35 C91.02 36.93, 69.32 35.77, 8.75 35 M110 35 C74.82 35.89, 39.39 35.99, 8.75 35 M8.75 35 C3.62 34.07, -0.38 32.39, 0 26.25 M8.75 35 C2.78 37.08, -1.38 32.21, 0 26.25 M0 26.25 C0.97 20.77, -0.54 15.58, 0 8.75 M0 26.25 C0.3 20.49, 0.26 14.3, 0 8.75 M0 8.75 C1.33 2.72, 1.7 0.17, 8.75 0 M0 8.75 C-0.57 2.56, 3.43 -1.16, 8.75 0" stroke="#000000" stroke-width="1" fill="none"></path></g><g transform="translate(297.01788330078125 246.80355834960938) rotate(0 20.5 12.5)"><text x="20.5" y="17" font-family="Virgil, Segoe UI Emoji" font-size="20px" fill="#000000" text-anchor="middle" style="white-space: pre;" direction="ltr">汇编</text></g><g stroke-linecap="round"><g transform="translate(82.58926966640502 126.06612102148836) rotate(0 85.45396265575033 -43.89933696511865)"><path d="M-0.96 -0.08 C27.24 -14.8, 141.21 -73.38, 169.75 -87.72 M0.74 -1.16 C29.25 -15.78, 143.79 -72.04, 171.87 -86.5" stroke="#000000" stroke-width="1" fill="none"></path></g><g transform="translate(82.58926966640502 126.06612102148836) rotate(0 85.45396265575033 -43.89933696511865)"><path d="M151.14 -66.59 C157.28 -73.05, 167.07 -78.04, 170.95 -88.11 M152.03 -65.48 C157.85 -72.06, 164.27 -78.38, 172.75 -85.57" stroke="#000000" stroke-width="1" fill="none"></path></g><g transform="translate(82.58926966640502 126.06612102148836) rotate(0 85.45396265575033 -43.89933696511865)"><path d="M141.94 -84.93 C151.35 -84.98, 164.32 -83.64, 170.95 -88.11 M142.83 -83.82 C151.57 -84.5, 160.99 -84.85, 172.75 -85.57" stroke="#000000" stroke-width="1" fill="none"></path></g></g><mask></mask><g stroke-linecap="round"><g transform="translate(88.65474600028392 132.88415539641124) rotate(0 103.84271569495019 -8.195885769845447)"><path d="M-0.22 -0.95 C34.59 -3.94, 174.64 -15.01, 209.47 -17.55 M-1.79 1.16 C32.78 -1.68, 172.9 -12.99, 208.39 -16.19" stroke="#000000" stroke-width="1" fill="none"></path></g><g transform="translate(88.65474600028392 132.88415539641124) rotate(0 103.84271569495019 -8.195885769845447)"><path d="M179.57 -4.02 C190.24 -9.65, 202.12 -13.34, 210.12 -16.75 M180.95 -4.26 C189.06 -6.65, 195.28 -9.77, 207.39 -16.81" stroke="#000000" stroke-width="1" fill="none"></path></g><g transform="translate(88.65474600028392 132.88415539641124) rotate(0 103.84271569495019 -8.195885769845447)"><path d="M177.84 -24.47 C189.19 -22.84, 201.68 -19.27, 210.12 -16.75 M179.22 -24.7 C187.98 -21.76, 194.65 -19.53, 207.39 -16.81" stroke="#000000" stroke-width="1" fill="none"></path></g></g><mask></mask><g stroke-linecap="round"><g transform="translate(86.13785627480411 143.4592123116987) rotate(0 108.35450599295183 23.399918803808845)"><path d="M0.87 -1.1 C36.81 6.72, 180.75 38.42, 216.85 46.5 M-0.14 0.93 C35.6 8.98, 179.97 40.49, 216.2 47.9" stroke="#000000" stroke-width="1" fill="none"></path></g><g transform="translate(86.13785627480411 143.4592123116987) rotate(0 108.35450599295183 23.399918803808845)"><path d="M184.65 53.03 C197.87 52.11, 211.21 46.61, 216.56 48.28 M186.41 51.47 C194.21 51.6, 201.88 49.17, 215.46 47.01" stroke="#000000" stroke-width="1" fill="none"></path></g><g transform="translate(86.13785627480411 143.4592123116987) rotate(0 108.35450599295183 23.399918803808845)"><path d="M188.92 32.96 C200.37 40.04, 212.01 42.53, 216.56 48.28 M190.68 31.39 C197.35 36.78, 203.91 39.56, 215.46 47.01" stroke="#000000" stroke-width="1" fill="none"></path></g></g><mask></mask><g stroke-linecap="round"><g transform="translate(86.44239149951568 140.00024467728304) rotate(0 85.18611593078259 61.41328037509024)"><path d="M-0.47 0.6 C28.13 21.17, 142.24 102.75, 170.85 122.95 M1.48 -0.12 C30 20.18, 141.78 100.89, 169.98 121.44" stroke="#000000" stroke-width="1" fill="none"></path></g><g transform="translate(86.44239149951568 140.00024467728304) rotate(0 85.18611593078259 61.41328037509024)"><path d="M142.13 113.45 C149.84 116.02, 154.8 119.2, 171.32 123.12 M141.59 113.14 C149.24 116.05, 158.99 119.26, 169.84 121.24" stroke="#000000" stroke-width="1" fill="none"></path></g><g transform="translate(86.44239149951568 140.00024467728304) rotate(0 85.18611593078259 61.41328037509024)"><path d="M154.18 96.83 C158.98 103.28, 161.09 110.39, 171.32 123.12 M153.64 96.52 C157.32 104.63, 163.27 113.1, 169.84 121.24" stroke="#000000" stroke-width="1" fill="none"></path></g></g><mask></mask></svg>