<svg version="1.1" xmlns="http://www.w3.org/2000/svg" viewBox="0 0 1039.3303833007812 257.4999084472656" width="3117.9911499023438" height="772.4997253417969">
  <!-- svg-source:excalidraw -->
  
  <defs>
    <style class="style-fonts">
      @font-face {
        font-family: "Virgil";
        src: url("https://excalidraw.com/Virgil.woff2");
      }
      @font-face {
        font-family: "Cascadia";
        src: url("https://excalidraw.com/Cascadia.woff2");
      }
    </style>
  </defs>
  <rect x="0" y="0" width="1039.3303833007812" height="257.4999084472656" fill="#fff4e6"></rect><g stroke-linecap="round" transform="translate(10 10) rotate(0 95.75894165039062 41.96429443359375)"><path d="M20.98 0 M20.98 0 C78.41 -1.28, 132.05 2.09, 170.54 0 M20.98 0 C56.48 -1.68, 90.91 -1.9, 170.54 0 M170.54 0 C184.76 2.14, 194.08 10.16, 191.52 20.98 M170.54 0 C182.82 0.27, 192.49 9.6, 191.52 20.98 M191.52 20.98 C188.51 31.45, 191.87 40.22, 191.52 62.95 M191.52 20.98 C193.52 29.14, 193.14 39.79, 191.52 62.95 M191.52 62.95 C190.42 76.74, 187.97 86.68, 170.54 83.93 M191.52 62.95 C192.48 79.39, 183.48 87.49, 170.54 83.93 M170.54 83.93 C130.6 83.84, 91.1 78.37, 20.98 83.93 M170.54 83.93 C122.55 84.73, 69.81 86.59, 20.98 83.93 M20.98 83.93 C3.62 83.24, 2.11 73.5, 0 62.95 M20.98 83.93 C5.01 83.82, 1.99 80.69, 0 62.95 M0 62.95 C-3.14 48.3, -1.75 32.25, 0 20.98 M0 62.95 C0.08 52.31, 0.11 42.11, 0 20.98 M0 20.98 C-3.58 6.78, 4.61 3.64, 20.98 0 M0 20.98 C1.17 10.83, 8.41 2.56, 20.98 0" stroke="#000000" stroke-width="1" fill="none"></path></g><g transform="translate(24.625 22.910736083984375) rotate(0 80 39.5)"><text x="160" y="19.333333333333332" font-family="Virgil, Segoe UI Emoji" font-size="20px" fill="#000000" text-anchor="end" style="white-space: pre;" direction="ltr">我的选择题答案：</text><text x="160" y="45.666666666666664" font-family="Virgil, Segoe UI Emoji" font-size="20px" fill="#000000" text-anchor="end" style="white-space: pre;" direction="ltr">ADDACCBAC</text><text x="160" y="72" font-family="Virgil, Segoe UI Emoji" font-size="20px" fill="#000000" text-anchor="end" style="white-space: pre;" direction="ltr"></text></g><g stroke-linecap="round" transform="translate(317.142822265625 10.44647216796875) rotate(0 89.5 40)"><path d="M20 0 M20 0 C69.8 1.91, 126.37 0.76, 159 0 M20 0 C72.18 -2.69, 122.33 -0.11, 159 0 M159 0 C173.24 0.61, 182.51 6.49, 179 20 M159 0 C175.47 -0.55, 174.99 3.64, 179 20 M179 20 C180.9 28.36, 178.95 38.64, 179 60 M179 20 C176.77 31.35, 179.52 44.27, 179 60 M179 60 C178.21 74.06, 172.27 77.65, 159 80 M179 60 C174.62 77.48, 170.03 82.01, 159 80 M159 80 C106.33 77.27, 57.17 85.14, 20 80 M159 80 C114.83 79.27, 73.24 77.62, 20 80 M20 80 C5.44 77.47, 2.68 70.28, 0 60 M20 80 C3.09 81.53, 0.12 74.07, 0 60 M0 60 C-3.3 53.73, -0.75 44.81, 0 20 M0 60 C1.78 52.51, -0.12 41.49, 0 20 M0 20 C-1.59 8.89, 6.02 1.38, 20 0 M0 20 C-4.49 10.99, 7.41 -0.41, 20 0" stroke="#000000" stroke-width="1" fill="none"></path></g><g transform="translate(356.142822265625 25.44647216796875) rotate(0 50.5 25)"><text x="50.5" y="17" font-family="Virgil, Segoe UI Emoji" font-size="20px" fill="#000000" text-anchor="middle" style="white-space: pre;" direction="ltr">我来编码：</text><text x="50.5" y="42" font-family="Virgil, Segoe UI Emoji" font-size="20px" fill="#000000" text-anchor="middle" style="white-space: pre;" direction="ltr">144133213</text></g><g stroke-linecap="round"><g transform="translate(212.24408908008968 54.70032563307433) rotate(0 49.683405780686655 -0.5790250107681203)"><path d="M-0.25 -2.55 C16.51 -3.19, 86.47 -2.96, 103.2 -3.4 M-3.83 2.24 C12.49 2.01, 85.07 0.96, 101.97 0.04" stroke="#000000" stroke-width="1" fill="none"></path></g><g transform="translate(212.24408908008968 54.70032563307433) rotate(0 49.683405780686655 -0.5790250107681203)"><path d="M70.47 13.84 C84.55 5.06, 92.97 2.25, 101.72 -2.59 M72.66 11.18 C78.89 8.52, 87.14 8.19, 101.93 -0.41" stroke="#000000" stroke-width="1" fill="none"></path></g><g transform="translate(212.24408908008968 54.70032563307433) rotate(0 49.683405780686655 -0.5790250107681203)"><path d="M69.84 -6.68 C84.24 -7.37, 92.91 -2.1, 101.72 -2.59 M72.03 -9.34 C78.17 -7.48, 86.56 -3.3, 101.93 -0.41" stroke="#000000" stroke-width="1" fill="none"></path></g></g><mask></mask><g stroke-linecap="round" transform="translate(610.4464721679688 10) rotate(0 93.080322265625 40)"><path d="M20 0 M20 0 C51.78 1.94, 81.53 -4.14, 166.16 0 M20 0 C71.62 1.88, 123.85 0.6, 166.16 0 M166.16 0 C183.15 -2.84, 183.3 7.17, 186.16 20 M166.16 0 C183.36 -2.36, 187.18 5.3, 186.16 20 M186.16 20 C186.67 34.93, 184.33 45.04, 186.16 60 M186.16 20 C187.01 32.27, 186.78 42.12, 186.16 60 M186.16 60 C189.04 69.67, 176.16 78.81, 166.16 80 M186.16 60 C189.07 70.75, 178.51 79.78, 166.16 80 M166.16 80 C123.78 82.13, 75.94 77.76, 20 80 M166.16 80 C127.19 77.93, 89.85 76.76, 20 80 M20 80 C4.64 76.39, 0.01 71.21, 0 60 M20 80 C3.98 79.77, 3.56 76.51, 0 60 M0 60 C-2.41 49.05, -0.78 35.52, 0 20 M0 60 C-0.91 50.64, -2.33 44.03, 0 20 M0 20 C2.54 6.09, 5.33 3.82, 20 0 M0 20 C1.46 3.37, 3.68 -1.73, 20 0" stroke="#d9480f" stroke-width="1" fill="none"></path></g><g transform="translate(653.0267944335938 25) rotate(0 50.5 25)"><text x="50.5" y="17" font-family="Virgil, Segoe UI Emoji" font-size="20px" fill="#d9480f" text-anchor="middle" style="white-space: pre;" direction="ltr">别人拿到：</text><text x="50.5" y="42" font-family="Virgil, Segoe UI Emoji" font-size="20px" fill="#d9480f" text-anchor="middle" style="white-space: pre;" direction="ltr">144133213</text></g><g stroke-linecap="round" transform="translate(843.1697387695312 15.982177734375) rotate(0 93.080322265625 30)"><path d="M15 0 M15 0 C43.91 -1.46, 79.39 1.03, 171.16 0 M15 0 C75.56 -0.39, 134.45 -1.74, 171.16 0 M171.16 0 C178.03 -1.23, 189.44 1.38, 186.16 15 M171.16 0 C179.95 -0.66, 190.43 6.67, 186.16 15 M186.16 15 C184.06 22.22, 184.34 37.03, 186.16 45 M186.16 15 C188.73 25.75, 187.66 34.74, 186.16 45 M186.16 45 C187.89 54.81, 180.87 63.32, 171.16 60 M186.16 45 C186.01 50.65, 184.4 58.56, 171.16 60 M171.16 60 C128.63 61.83, 89.09 60.89, 15 60 M171.16 60 C133.43 57.15, 96.78 59.03, 15 60 M15 60 C6.7 58.09, -0.79 55.41, 0 45 M15 60 C8.37 60.91, -0.49 53.64, 0 45 M0 45 C-2.17 38.79, -0.41 26.17, 0 15 M0 45 C1.98 35.15, -1.13 29.48, 0 15 M0 15 C0.87 7.89, 4.42 3.33, 15 0 M0 15 C-1.84 2.84, 0.44 3.21, 15 0" stroke="#d9480f" stroke-width="1" fill="none"></path></g><g transform="translate(873.7500610351562 20.982177734375) rotate(0 62.5 25)"><text x="62.5" y="17" font-family="Virgil, Segoe UI Emoji" font-size="20px" fill="#d9480f" text-anchor="middle" style="white-space: pre;" direction="ltr">自己解码：</text><text x="62.5" y="42" font-family="Virgil, Segoe UI Emoji" font-size="20px" fill="#d9480f" text-anchor="middle" style="white-space: pre;" direction="ltr">ADDACCBAC</text></g><g stroke-linecap="round"><g transform="translate(499.82440426213145 50.93885587539185) rotate(0 53.30189082249848 -0.19697384841005317)"><path d="M2.63 0.18 C19.85 0.85, 88.45 1.9, 106 1.89 M0.61 -2.19 C17.28 -2.05, 86.33 -2.71, 104.16 -1.74" stroke="#000000" stroke-width="1" fill="none"></path></g><g transform="translate(499.82440426213145 50.93885587539185) rotate(0 53.30189082249848 -0.19697384841005317)"><path d="M76.04 9.05 C90.79 7.43, 99.43 -3.4, 106.68 -2.5 M74.79 7.42 C87.52 3.2, 96.96 2.42, 102.41 -3.22" stroke="#000000" stroke-width="1" fill="none"></path></g><g transform="translate(499.82440426213145 50.93885587539185) rotate(0 53.30189082249848 -0.19697384841005317)"><path d="M76.42 -11.46 C90.7 -4.96, 99.2 -7.68, 106.68 -2.5 M75.17 -13.1 C87.57 -9.94, 96.87 -3.33, 102.41 -3.22" stroke="#000000" stroke-width="1" fill="none"></path></g></g><mask></mask><g stroke-linecap="round"><g transform="translate(797.0535278320312 50.625) rotate(0 21.687247202918 -0.5087648158893074)"><path d="M-0.92 -1.9 C6.63 -2.58, 36.35 -4.12, 44.3 -4.25 M3.77 3.23 C10.94 2.83, 34.41 -1.41, 41.39 -1.96" stroke="#000000" stroke-width="1" fill="none"></path></g><g transform="translate(797.0535278320312 50.625) rotate(0 21.687247202918 -0.5087648158893074)"><path d="M18.45 6.78 C22.98 7.7, 30.51 5.72, 38.38 0.82 M19.97 6.97 C28.73 3.65, 36.21 1.09, 40.13 -1.64" stroke="#000000" stroke-width="1" fill="none"></path></g><g transform="translate(797.0535278320312 50.625) rotate(0 21.687247202918 -0.5087648158893074)"><path d="M16.43 -8.67 C21.46 -3.68, 29.52 -1.6, 38.38 0.82 M17.95 -8.48 C27.25 -6.46, 35.43 -3.69, 40.13 -1.64" stroke="#000000" stroke-width="1" fill="none"></path></g></g><mask></mask><g stroke-linecap="round" transform="translate(367.58929443359375 118.92849731445312) rotate(0 40.625 64.28570556640625)"><path d="M20.31 0 M20.31 0 C30.81 1.16, 33.12 1.24, 60.94 0 M20.31 0 C35.26 -1.89, 51.4 -1.39, 60.94 0 M60.94 0 C75.31 -1, 82.14 9.61, 81.25 20.31 M60.94 0 C72.89 -1.53, 81.82 4.19, 81.25 20.31 M81.25 20.31 C77.01 41.21, 77.58 66.51, 81.25 108.26 M81.25 20.31 C80.58 53.04, 81.04 81.46, 81.25 108.26 M81.25 108.26 C83.39 124, 74.54 130.3, 60.94 128.57 M81.25 108.26 C83.49 123.26, 73.53 124.72, 60.94 128.57 M60.94 128.57 C53.78 130.34, 46.13 132.69, 20.31 128.57 M60.94 128.57 C53.23 127.51, 40.79 127.81, 20.31 128.57 M20.31 128.57 C6.59 127.9, 1.52 125.1, 0 108.26 M20.31 128.57 C4.43 124.74, -1.44 117.71, 0 108.26 M0 108.26 C4.31 77.39, -0.91 43.73, 0 20.31 M0 108.26 C1.39 89.11, 0.1 67.14, 0 20.31 M0 20.31 C-0.89 7.21, 5.95 -1.09, 20.31 0 M0 20.31 C-4.21 2.6, 6.55 -0.37, 20.31 0" stroke="#000000" stroke-width="1" fill="none"></path></g><g transform="translate(371.5535888671875 135.66070556640625) rotate(0 38 51)"><text x="0" y="17.5" font-family="Virgil, Segoe UI Emoji" font-size="20px" fill="#000000" text-anchor="start" style="white-space: pre;" direction="ltr">A --&gt; 1</text><text x="0" y="43" font-family="Virgil, Segoe UI Emoji" font-size="20px" fill="#000000" text-anchor="start" style="white-space: pre;" direction="ltr">B --&gt; 2</text><text x="0" y="68.5" font-family="Virgil, Segoe UI Emoji" font-size="20px" fill="#000000" text-anchor="start" style="white-space: pre;" direction="ltr">C --&gt; 3</text><text x="0" y="94" font-family="Virgil, Segoe UI Emoji" font-size="20px" fill="#000000" text-anchor="start" style="white-space: pre;" direction="ltr">D --&gt; 4</text></g><g stroke-linecap="round" transform="translate(910.1964111328125 116.6607666015625) rotate(0 40.625 64.28570556640625)"><path d="M20.31 0 M20.31 0 C30.87 0.47, 50.95 0.48, 60.94 0 M20.31 0 C29.68 -0.21, 41.12 1.31, 60.94 0 M60.94 0 C73.52 -0.85, 84.12 8.01, 81.25 20.31 M60.94 0 C78.44 -2.56, 82.04 3.98, 81.25 20.31 M81.25 20.31 C84.34 41.9, 83.04 61.93, 81.25 108.26 M81.25 20.31 C78.06 44.29, 78.13 66.31, 81.25 108.26 M81.25 108.26 C81.63 121.5, 75.49 128.95, 60.94 128.57 M81.25 108.26 C84.13 124.91, 78.69 130.96, 60.94 128.57 M60.94 128.57 C44.75 131.57, 31.79 125.56, 20.31 128.57 M60.94 128.57 C48.31 128.56, 38.43 128.94, 20.31 128.57 M20.31 128.57 C6.92 127.97, -2.56 118.29, 0 108.26 M20.31 128.57 C9.28 126.03, -2.98 119.37, 0 108.26 M0 108.26 C3.07 88.3, -3.29 67.72, 0 20.31 M0 108.26 C1.96 88.89, 1.53 66.57, 0 20.31 M0 20.31 C-1.09 8.75, 10.16 0.59, 20.31 0 M0 20.31 C4.01 7.01, 11.18 3.72, 20.31 0" stroke="#e67700" stroke-width="1" fill="none"></path></g><g transform="translate(913.7142944335938 133.39297485351562) rotate(0 33 51)"><text x="66" y="17.5" font-family="Virgil, Segoe UI Emoji" font-size="20px" fill="#d9480f" text-anchor="end" style="white-space: pre;" direction="ltr">1 --&gt; A</text><text x="66" y="43" font-family="Virgil, Segoe UI Emoji" font-size="20px" fill="#d9480f" text-anchor="end" style="white-space: pre;" direction="ltr">2--&gt; B</text><text x="66" y="68.5" font-family="Virgil, Segoe UI Emoji" font-size="20px" fill="#d9480f" text-anchor="end" style="white-space: pre;" direction="ltr">3--&gt; C</text><text x="66" y="94" font-family="Virgil, Segoe UI Emoji" font-size="20px" fill="#d9480f" text-anchor="end" style="white-space: pre;" direction="ltr">4--&gt; D</text></g><g stroke-linecap="round"><g transform="translate(346.60711669921875 84.10714721679688) rotate(0 17.952657866664254 17.56608368795365)"><path d="M-1.95 1.9 C3.42 7.32, 26.48 29.32, 32.95 34.67 M2.19 0.46 C8.31 4.95, 32.27 26.19, 37.85 31.03" stroke="#000000" stroke-width="1" fill="none"></path></g><g transform="translate(346.60711669921875 84.10714721679688) rotate(0 17.952657866664254 17.56608368795365)"><path d="M18.17 18.39 C26.51 27.13, 32.89 31.34, 38.4 30.82 M13.76 20.92 C22.94 26.01, 32.18 28.23, 36.86 32.65" stroke="#000000" stroke-width="1" fill="none"></path></g><g transform="translate(346.60711669921875 84.10714721679688) rotate(0 17.952657866664254 17.56608368795365)"><path d="M29 6.03 C34 18.65, 36.84 26.89, 38.4 30.82 M24.59 8.56 C29.98 17.74, 35.44 24.28, 36.86 32.65" stroke="#000000" stroke-width="1" fill="none"></path></g></g><mask></mask><g stroke-linecap="round"><g transform="translate(446.16070556640625 115.8035888671875) rotate(0 17.397225902602088 -10.420155934616929)"><path d="M-0.99 2.68 C5.42 -0.89, 29.97 -19.54, 35.78 -23.52 M3.67 1.67 C9.99 -1.42, 29.22 -17.75, 33.82 -21.03" stroke="#000000" stroke-width="1" fill="none"></path></g><g transform="translate(446.16070556640625 115.8035888671875) rotate(0 17.397225902602088 -10.420155934616929)"><path d="M26.75 -2.77 C22.43 -9.02, 27.95 -12.47, 35.21 -19.43 M22.1 -4.64 C28.27 -9.88, 30.67 -15.08, 34.03 -19.21" stroke="#000000" stroke-width="1" fill="none"></path></g><g transform="translate(446.16070556640625 115.8035888671875) rotate(0 17.397225902602088 -10.420155934616929)"><path d="M18.04 -13.88 C15.34 -17.78, 22.64 -18.97, 35.21 -19.43 M13.39 -15.74 C22.62 -17.1, 27.97 -18.55, 34.03 -19.21" stroke="#000000" stroke-width="1" fill="none"></path></g></g><mask></mask><g stroke-linecap="round"><g transform="translate(863.1249389648438 85) rotate(0 22.725576673150158 18.075907253623015)"><path d="M0.76 1.93 C7.8 6.83, 34.74 27.36, 42.33 32.06 M-2.27 0.51 C5.66 7.08, 39.73 30.37, 47.73 35.64" stroke="#d9480f" stroke-width="1" fill="none"></path></g><g transform="translate(863.1249389648438 85) rotate(0 22.725576673150158 18.075907253623015)"><path d="M23.98 26.35 C29.25 33.94, 34.51 35.71, 50.03 39.53 M20.73 29 C28.72 30.75, 35.5 31.22, 49.09 36.43" stroke="#d9480f" stroke-width="1" fill="none"></path></g><g transform="translate(863.1249389648438 85) rotate(0 22.725576673150158 18.075907253623015)"><path d="M34.44 10.86 C36.85 23.21, 38.93 29.66, 50.03 39.53 M31.19 13.51 C36.06 19.49, 39.97 24.19, 49.09 36.43" stroke="#d9480f" stroke-width="1" fill="none"></path></g></g><mask></mask><g stroke-linecap="round"><g transform="translate(994.8214721679688 120.26788330078125) rotate(0 13.301056446991879 -17.189598695561287)"><path d="M-2.48 1.42 C1.63 -4.65, 19.3 -29.51, 23.49 -35.8 M1.37 -0.28 C6.52 -5.97, 24.6 -26.88, 29.08 -32.45" stroke="#d9480f" stroke-width="1" fill="none"></path></g><g transform="translate(994.8214721679688 120.26788330078125) rotate(0 13.301056446991879 -17.189598695561287)"><path d="M23.72 -14.29 C22.76 -20.6, 23.98 -24.22, 30.13 -28.7 M20.95 -12.73 C25.83 -18.86, 26.27 -25.13, 29.05 -33.94" stroke="#d9480f" stroke-width="1" fill="none"></path></g><g transform="translate(994.8214721679688 120.26788330078125) rotate(0 13.301056446991879 -17.189598695561287)"><path d="M12.39 -23.79 C14.4 -27.44, 18.55 -28.61, 30.13 -28.7 M9.62 -22.23 C17.96 -25.45, 21.93 -28.74, 29.05 -33.94" stroke="#d9480f" stroke-width="1" fill="none"></path></g></g><mask></mask></svg>