<svg version="1.1" xmlns="http://www.w3.org/2000/svg" viewBox="0 0 774.4644165039062 145.4464111328125" width="1548.9288330078125" height="290.892822265625">
  <!-- svg-source:excalidraw -->
  
  <defs>
    <style class="style-fonts">
      @font-face {
        font-family: "Virgil";
        src: url("https://excalidraw.com/Virgil.woff2");
      }
      @font-face {
        font-family: "Cascadia";
        src: url("https://excalidraw.com/Cascadia.woff2");
      }
    </style>
  </defs>
  <rect x="0" y="0" width="774.4644165039062" height="145.4464111328125" fill="#ffffff"></rect><g stroke-linecap="round" transform="translate(219.8214111328125 46.160858154296875) rotate(0 60.5 31.25)"><path d="M15.63 0 M15.63 0 C42.94 -3.51, 71.64 2.32, 105.38 0 M15.63 0 C40.92 0.3, 63.28 1.95, 105.38 0 M105.38 0 C113.12 -3.63, 121.92 5.34, 121 15.63 M105.38 0 C119 3.23, 116.41 5.5, 121 15.63 M121 15.63 C123.83 30.51, 118.53 36.33, 121 46.88 M121 15.63 C118.65 22.36, 120.71 30.06, 121 46.88 M121 46.88 C123.62 58.74, 112.87 66.48, 105.38 62.5 M121 46.88 C124.62 56.69, 113.1 61.9, 105.38 62.5 M105.38 62.5 C72.08 59.43, 37.12 62.83, 15.63 62.5 M105.38 62.5 C81.35 60.19, 54.47 62.77, 15.63 62.5 M15.63 62.5 C5.86 64.02, 3.41 55.05, 0 46.88 M15.63 62.5 C4.31 58.75, 2.31 59.97, 0 46.88 M0 46.88 C-0.45 38.42, 3.44 25.72, 0 15.63 M0 46.88 C-2.07 37.64, -1.85 34.28, 0 15.63 M0 15.63 C2.69 2.4, 8.93 1.49, 15.63 0 M0 15.63 C2.8 1.66, 8.96 0.31, 15.63 0" stroke="#000000" stroke-width="1" fill="none"></path></g><g transform="translate(247.86605834960938 64.91085815429688) rotate(0 32 12.5)"><text x="32" y="17" font-family="Virgil, Segoe UI Emoji" font-size="20px" fill="#000000" text-anchor="middle" style="white-space: pre;" direction="ltr">C/汇编</text></g><g stroke-linecap="round" transform="translate(10 27.85723876953125) rotate(0 82.5 49.5)"><path d="M143.04 17.96 C151.8 22.97, 159.54 31.6, 163.2 38.22 C166.87 44.84, 167.35 50.64, 165.01 57.69 C162.68 64.74, 156.12 74.35, 149.2 80.53 C142.27 86.72, 134.21 91.65, 123.48 94.81 C112.74 97.96, 96.87 99.75, 84.79 99.46 C72.71 99.18, 62.07 96.28, 51 93.1 C39.92 89.91, 26.04 85.21, 18.35 80.35 C10.66 75.5, 7.93 70.29, 4.86 63.98 C1.79 57.67, -2.01 49.56, -0.07 42.49 C1.88 35.43, 9.54 27.42, 16.53 21.6 C23.53 15.77, 31.5 11.39, 41.91 7.53 C52.32 3.66, 66.93 -1.32, 78.99 -1.57 C91.04 -1.83, 100.42 -0.3, 114.25 5.98 C128.07 12.26, 154.06 27.11, 161.92 36.13 C169.77 45.15, 162.6 59.35, 161.38 60.1 M101.87 1.07 C113.57 1.13, 125.03 3.55, 133.78 7.69 C142.54 11.84, 149.39 19.48, 154.43 25.92 C159.46 32.36, 163.9 39.08, 163.98 46.34 C164.06 53.6, 159.98 62.22, 154.91 69.48 C149.85 76.74, 142.37 85.61, 133.6 89.91 C124.84 94.21, 113.31 93.89, 102.33 95.26 C91.34 96.63, 79.15 99.56, 67.69 98.15 C56.24 96.74, 43.36 90.78, 33.6 86.79 C23.84 82.8, 14.48 80.66, 9.11 74.23 C3.75 67.8, 1.9 55.3, 1.41 48.22 C0.92 41.14, 1.15 37.37, 6.15 31.74 C11.15 26.1, 21.56 19.55, 31.41 14.4 C41.26 9.25, 53.68 2.87, 65.25 0.84 C76.83 -1.2, 94.84 1.53, 100.87 2.19 C106.89 2.85, 101.57 4.17, 101.4 4.81" stroke="#000000" stroke-width="1" fill="none"></path></g><g transform="translate(50 52.35723876953125) rotate(0 42.5 25)"><text x="42.5" y="17" font-family="Virgil, Segoe UI Emoji" font-size="20px" fill="#000000" text-anchor="middle" style="white-space: pre;" direction="ltr">program </text><text x="42.5" y="42" font-family="Virgil, Segoe UI Emoji" font-size="20px" fill="#000000" text-anchor="middle" style="white-space: pre;" direction="ltr">language</text></g><g stroke-linecap="round" transform="translate(379.26788330078125 44.803680419921875) rotate(0 60.5 30)"><path d="M15 0 M15 0 C48.36 4.12, 84.48 -0.67, 106 0 M15 0 C41.84 -0.28, 70.23 0.02, 106 0 M106 0 C119.18 1.33, 124.03 6.11, 121 15 M106 0 C116.32 0.23, 123.33 9.51, 121 15 M121 15 C119.92 23.22, 123.55 36.94, 121 45 M121 15 C122.23 24.46, 121.49 33.68, 121 45 M121 45 C117.94 57.05, 115.37 61.38, 106 60 M121 45 C121.38 56.47, 111.52 61.65, 106 60 M106 60 C76.81 55.89, 43.61 61.01, 15 60 M106 60 C78.49 62, 54.06 59.5, 15 60 M15 60 C1.4 63.64, 0.71 58.43, 0 45 M15 60 C6.04 57.7, -1.05 53.63, 0 45 M0 45 C-1.87 33.93, 2.83 26.19, 0 15 M0 45 C2.12 38.03, 0.43 30.61, 0 15 M0 15 C1.63 4.68, 1.02 2.99, 15 0 M0 15 C-1.42 4.3, 3.16 1.67, 15 0" stroke="#000000" stroke-width="1" fill="none"></path></g><g transform="translate(408.3125305175781 62.303680419921875) rotate(0 31 12.5)"><text x="31" y="17" font-family="Virgil, Segoe UI Emoji" font-size="20px" fill="#000000" text-anchor="middle" style="white-space: pre;" direction="ltr">python</text></g><g stroke-linecap="round" transform="translate(534.1072387695312 10) rotate(0 115.1785888671875 62.72320556640625)"><path d="M31.36 0 M31.36 0 C92.19 3.67, 158.28 3.65, 199 0 M31.36 0 C95.79 -1.11, 157.83 0.72, 199 0 M199 0 C220.8 0.06, 226.8 12.76, 230.36 31.36 M199 0 C224.43 3.44, 231.55 14.54, 230.36 31.36 M230.36 31.36 C226.57 40.82, 229.19 55.95, 230.36 94.08 M230.36 31.36 C232.01 54.3, 229.12 76.93, 230.36 94.08 M230.36 94.08 C234.3 113.44, 219.59 128.22, 199 125.45 M230.36 94.08 C228.27 115.75, 220.11 125.5, 199 125.45 M199 125.45 C138.36 120.48, 70.23 127.52, 31.36 125.45 M199 125.45 C161.33 128.67, 119.99 129.2, 31.36 125.45 M31.36 125.45 C11.26 126.48, -2.23 118.79, 0 94.08 M31.36 125.45 C11.8 122.68, -0.66 117.56, 0 94.08 M0 94.08 C1.67 67.89, 1.97 42.93, 0 31.36 M0 94.08 C-0.04 69.78, 0.13 44.48, 0 31.36 M0 31.36 C0.98 9.51, 10.43 1.92, 31.36 0 M0 31.36 C-3.66 13.59, 10.71 2.93, 31.36 0" stroke="#000000" stroke-width="1" fill="none"></path></g><g transform="translate(552.1250610351562 56.357177734375) rotate(0 95.5 27)"><text x="95.5" y="19" font-family="Virgil, Segoe UI Emoji" font-size="20px" fill="#000000" text-anchor="middle" style="white-space: pre;" direction="ltr">JavaScript、Golang</text><text x="95.5" y="46" font-family="Virgil, Segoe UI Emoji" font-size="20px" fill="#000000" text-anchor="middle" style="white-space: pre;" direction="ltr"></text></g><g stroke-linecap="round"><g transform="translate(176.07147216796875 76.51791381835938) rotate(0 21.702962376065557 -0.8106721297672266)"><path d="M2.66 -2.64 C9.79 -3.34, 36.33 -3.93, 42.75 -3.66 M0.65 2.11 C7.61 1.82, 35.16 1.13, 41.67 -0.08" stroke="#000000" stroke-width="1" fill="none"></path></g><g transform="translate(176.07147216796875 76.51791381835938) rotate(0 21.702962376065557 -0.8106721297672266)"><path d="M19.46 11.65 C28.57 6.51, 37.89 2.13, 43.28 -0.21 M23.9 7.14 C26.99 5.93, 31.75 2.43, 42.98 -0.71" stroke="#000000" stroke-width="1" fill="none"></path></g><g transform="translate(176.07147216796875 76.51791381835938) rotate(0 21.702962376065557 -0.8106721297672266)"><path d="M18.19 -2.24 C27.74 -3.26, 37.44 -3.49, 43.28 -0.21 M22.64 -6.75 C26.27 -4.53, 31.35 -4.58, 42.98 -0.71" stroke="#000000" stroke-width="1" fill="none"></path></g></g><mask></mask><g stroke-linecap="round"><g transform="translate(342.58929443359375 79.64291381835938) rotate(0 15.53683093901725 0.6767855484038705)"><path d="M-0.22 2.55 C5.81 1.95, 29.39 -0.65, 34.86 -1.2 M-3.78 1.47 C2.16 2.54, 27.88 2.1, 33.61 2.27" stroke="#000000" stroke-width="1" fill="none"></path></g><g transform="translate(342.58929443359375 79.64291381835938) rotate(0 15.53683093901725 0.6767855484038705)"><path d="M21.06 10 C21.52 5.95, 25.98 2.62, 35.62 3.53 M17.68 7.08 C22.11 5.1, 25.89 4.72, 32.14 3.02" stroke="#000000" stroke-width="1" fill="none"></path></g><g transform="translate(342.58929443359375 79.64291381835938) rotate(0 15.53683093901725 0.6767855484038705)"><path d="M21.12 -1.31 C21.75 -2.51, 26.2 -2.99, 35.62 3.53 M17.73 -4.22 C22.04 -3.8, 25.81 -1.79, 32.14 3.02" stroke="#000000" stroke-width="1" fill="none"></path></g></g><mask></mask><g stroke-linecap="round"><g transform="translate(500.62506103515625 76.96438598632812) rotate(0 17.061842568814768 0.7267255607247591)"><path d="M2.71 0.79 C7.85 0.92, 23.34 -0.17, 28.33 -0.44 M0.74 -1.26 C6.94 -0.6, 28.2 2.23, 33.39 2.71" stroke="#000000" stroke-width="1" fill="none"></path></g><g transform="translate(500.62506103515625 76.96438598632812) rotate(0 17.061842568814768 0.7267255607247591)"><path d="M19.27 3.56 C20.63 7.29, 23.38 4.96, 34.68 2.54 M19.16 7.2 C23.64 5.26, 26.86 5.32, 32.76 3.58" stroke="#000000" stroke-width="1" fill="none"></path></g><g transform="translate(500.62506103515625 76.96438598632812) rotate(0 17.061842568814768 0.7267255607247591)"><path d="M20.48 -6.91 C21.49 -0.94, 23.99 -1.06, 34.68 2.54 M20.37 -3.27 C24.45 -2.4, 27.35 0.46, 32.76 3.58" stroke="#000000" stroke-width="1" fill="none"></path></g></g><mask></mask></svg>