<svg version="1.1" xmlns="http://www.w3.org/2000/svg" viewBox="0 0 723.22314453125 80.26785278320312" width="1446.4462890625" height="160.53570556640625">
  <!-- svg-source:excalidraw -->
  
  <defs>
    <style class="style-fonts">
      @font-face {
        font-family: "Virgil";
        src: url("https://excalidraw.com/Virgil.woff2");
      }
      @font-face {
        font-family: "Cascadia";
        src: url("https://excalidraw.com/Cascadia.woff2");
      }
    </style>
  </defs>
  <rect x="0" y="0" width="723.22314453125" height="80.26785278320312" fill="#ffffff"></rect><g stroke-linecap="round" transform="translate(10 10) rotate(0 62.27679443359375 30.133926391601562)"><path d="M60.31 0.63 C70.05 0.29, 83.49 2.53, 92.68 4.76 C101.87 6.98, 110.13 9.68, 115.45 13.97 C120.77 18.25, 124.38 25.44, 124.61 30.46 C124.85 35.47, 122.03 39.73, 116.88 44.08 C111.73 48.43, 102.67 53.8, 93.74 56.55 C84.8 59.3, 73.57 60.7, 63.28 60.57 C53 60.44, 41.07 58.35, 32.03 55.78 C23 53.2, 14.54 49.47, 9.07 45.12 C3.61 40.78, -0.55 34.55, -0.74 29.7 C-0.93 24.85, 2.85 20.29, 7.92 16.04 C13 11.78, 19.51 6.71, 29.68 4.15 C39.86 1.59, 61.13 1.05, 68.95 0.68 C76.78 0.31, 76.88 1.38, 76.61 1.95 M51.48 -0.56 C61.04 -1.92, 73.51 -1.39, 83.01 0.67 C92.5 2.72, 101.48 7.66, 108.46 11.78 C115.44 15.9, 122.78 20.71, 124.89 25.39 C127.01 30.08, 124.54 35.45, 121.13 39.9 C117.73 44.34, 112.39 48.67, 104.46 52.07 C96.54 55.47, 83.84 59.46, 73.59 60.32 C63.35 61.17, 52.93 58.92, 43 57.21 C33.07 55.5, 20.99 53.85, 14.01 50.06 C7.03 46.27, 2.92 39.52, 1.11 34.5 C-0.7 29.47, -0.32 24.31, 3.17 19.91 C6.67 15.5, 14.11 11.37, 22.09 8.07 C30.07 4.77, 46.14 1.18, 51.07 0.13 C55.99 -0.92, 51.51 1.39, 51.63 1.8" stroke="#000000" stroke-width="1" fill="none"></path></g><g transform="translate(55.27679443359375 27.633926391601562) rotate(0 17 12.5)"><text x="17" y="17" font-family="Virgil, Segoe UI Emoji" font-size="20px" fill="#000000" text-anchor="middle" style="white-space: pre;" direction="ltr">web</text></g><g stroke-linecap="round" transform="translate(189.017822265625 21.607147216796875) rotate(0 76.1160888671875 17.5)"><path d="M8.75 0 M8.75 0 C44.8 0.81, 81.57 -0.09, 143.48 0 M8.75 0 C58.12 3.17, 110.21 2.51, 143.48 0 M143.48 0 C150.24 3.97, 151.38 2.78, 152.23 8.75 M143.48 0 C149.19 -2.65, 148.86 2.6, 152.23 8.75 M152.23 8.75 C151.2 16.63, 153.94 23.88, 152.23 26.25 M152.23 8.75 C154 14.24, 150.88 17.34, 152.23 26.25 M152.23 26.25 C148.99 29.2, 151.01 33.69, 143.48 35 M152.23 26.25 C150.07 27.92, 149.51 39.2, 143.48 35 M143.48 35 C97.65 35.33, 55.06 38.32, 8.75 35 M143.48 35 C100.18 32.02, 55.47 31.92, 8.75 35 M8.75 35 C3.69 33.41, 1.08 34.72, 0 26.25 M8.75 35 C2.22 38.91, 4.02 34.37, 0 26.25 M0 26.25 C1.09 21.46, -2.33 21.52, 0 8.75 M0 26.25 C-0.1 24.01, 1.02 18.77, 0 8.75 M0 8.75 C-2.04 -0.61, 6.21 3.25, 8.75 0 M0 8.75 C-2.43 3.03, 3.51 -3.76, 8.75 0" stroke="#000000" stroke-width="1" fill="none"></path></g><g transform="translate(246.1339111328125 26.607147216796875) rotate(0 19 12.5)"><text x="19" y="17" font-family="Virgil, Segoe UI Emoji" font-size="20px" fill="#000000" text-anchor="middle" style="white-space: pre;" direction="ltr">wsgi</text></g><g stroke-linecap="round" transform="translate(379.77685546875 22.982147216796875) rotate(0 76.1160888671875 17.5)"><path d="M8.75 0 M8.75 0 C55.79 -2.51, 96.85 -4.15, 143.48 0 M8.75 0 C56.42 -1.55, 105.35 1.96, 143.48 0 M143.48 0 C148.34 -1.22, 150.98 4.93, 152.23 8.75 M143.48 0 C149.33 -2.66, 150.76 4.71, 152.23 8.75 M152.23 8.75 C150.14 15.5, 155.39 15.65, 152.23 26.25 M152.23 8.75 C151.37 13.43, 151.09 22.67, 152.23 26.25 M152.23 26.25 C150.49 28.93, 152.36 32.9, 143.48 35 M152.23 26.25 C150.05 28.39, 145.91 34.04, 143.48 35 M143.48 35 C112.51 33.19, 77.95 33.02, 8.75 35 M143.48 35 C115.85 35.42, 89.34 37.14, 8.75 35 M8.75 35 C6.4 33.06, 3.84 35.97, 0 26.25 M8.75 35 C-0.62 30.89, -1.53 28.11, 0 26.25 M0 26.25 C1.26 24.52, 2.65 18.21, 0 8.75 M0 26.25 C-1.36 20.74, 0.44 12.22, 0 8.75 M0 8.75 C0.53 -1.08, 3.27 -0.77, 8.75 0 M0 8.75 C4.58 -0.98, 5.55 -2.73, 8.75 0" stroke="#000000" stroke-width="1" fill="none"></path></g><g transform="translate(412.8929443359375 27.982147216796875) rotate(0 43 12.5)"><text x="43" y="17" font-family="Virgil, Segoe UI Emoji" font-size="20px" fill="#000000" text-anchor="middle" style="white-space: pre;" direction="ltr">werkzeug</text></g><g stroke-linecap="round" transform="translate(560.990966796875 19.946441650390625) rotate(0 76.1160888671875 17.5)"><path d="M8.75 0 M8.75 0 C44.8 0.09, 86.66 -0.01, 143.48 0 M8.75 0 C39.94 1.02, 72.09 -1.16, 143.48 0 M143.48 0 C149.88 -1.36, 152.69 5.06, 152.23 8.75 M143.48 0 C145.8 -2.19, 153.83 3.71, 152.23 8.75 M152.23 8.75 C152.67 16.5, 152.88 17.78, 152.23 26.25 M152.23 8.75 C153.39 15.59, 151.46 23.07, 152.23 26.25 M152.23 26.25 C154.83 32.88, 146.46 32.38, 143.48 35 M152.23 26.25 C150.52 30.89, 145.26 31.39, 143.48 35 M143.48 35 C105.92 34.62, 67.67 35.16, 8.75 35 M143.48 35 C103.41 36.73, 64.36 36.41, 8.75 35 M8.75 35 C4.06 38.39, 2.34 33.48, 0 26.25 M8.75 35 C5.84 30.59, 3 29.21, 0 26.25 M0 26.25 C-1.43 19.97, -2.33 12.86, 0 8.75 M0 26.25 C-1.61 21.03, 0.07 17.62, 0 8.75 M0 8.75 C0.16 0.38, -0.93 0.14, 8.75 0 M0 8.75 C0.24 0.24, -0.69 -0.3, 8.75 0" stroke="#000000" stroke-width="1" fill="none"></path></g><g transform="translate(612.1070556640625 24.946441650390625) rotate(0 25 12.5)"><text x="25" y="17" font-family="Virgil, Segoe UI Emoji" font-size="20px" fill="#000000" text-anchor="middle" style="white-space: pre;" direction="ltr">flask</text></g><g stroke-linecap="round"><g transform="translate(136.3316984813548 39.310901605258834) rotate(0 24.86690143496355 -0.931123030353092)"><path d="M1.73 -0.18 C9.83 -0.05, 42.39 -1.66, 50.51 -1.54 M-0.78 -2.74 C6.68 -2.12, 39.5 -0.16, 47.64 0.88" stroke="#000000" stroke-width="1" fill="none"></path></g><g transform="translate(136.3316984813548 39.310901605258834) rotate(0 24.86690143496355 -0.931123030353092)"><path d="M22.41 5.86 C28.77 3.09, 40.87 3.65, 45.43 2.37 M22.85 9.1 C31.29 4.09, 36.44 2.78, 46.11 2.19" stroke="#000000" stroke-width="1" fill="none"></path></g><g transform="translate(136.3316984813548 39.310901605258834) rotate(0 24.86690143496355 -0.931123030353092)"><path d="M23.98 -11.75 C29.47 -8.04, 40.99 -1.01, 45.43 2.37 M24.42 -8.51 C32.12 -8.58, 36.82 -4.92, 46.11 2.19" stroke="#000000" stroke-width="1" fill="none"></path></g></g><mask></mask><g stroke-linecap="round"><g transform="translate(343.9285888671875 38.5714111328125) rotate(0 15.205352354012462 2.673046507276595)"><path d="M0.69 2.54 C5.92 3.26, 27.95 4.34, 32.79 4.45 M-2.38 1.45 C2.58 1.44, 26.88 1.38, 31.88 0.89" stroke="#000000" stroke-width="1" fill="none"></path></g><g transform="translate(343.9285888671875 38.5714111328125) rotate(0 15.205352354012462 2.673046507276595)"><path d="M20.56 9.29 C25.61 3.9, 29.2 -0.31, 32.97 2.44 M17.09 8.1 C21.1 3.74, 27.82 4.74, 32.29 -0.27" stroke="#000000" stroke-width="1" fill="none"></path></g><g transform="translate(343.9285888671875 38.5714111328125) rotate(0 15.205352354012462 2.673046507276595)"><path d="M20.16 -1.11 C25.36 -2.86, 29.09 -3.45, 32.97 2.44 M16.69 -2.3 C20.78 -3.48, 27.63 0.7, 32.29 -0.27" stroke="#000000" stroke-width="1" fill="none"></path></g></g><mask></mask><g stroke-linecap="round"><g transform="translate(535 41.6964111328125) rotate(0 13.124700444899531 0.8905546675651195)"><path d="M-0.69 1.84 C2.53 2.07, 17.92 -0.6, 21.48 -0.69 M4.13 0.37 C8.07 1.16, 23.27 3, 26.94 2.32" stroke="#000000" stroke-width="1" fill="none"></path></g><g transform="translate(535 41.6964111328125) rotate(0 13.124700444899531 0.8905546675651195)"><path d="M17.58 4.91 C19.27 2.78, 25.05 3.65, 27.77 3.62 M16.02 7.33 C19.66 5.55, 24.88 3.57, 27.1 3.17" stroke="#000000" stroke-width="1" fill="none"></path></g><g transform="translate(535 41.6964111328125) rotate(0 13.124700444899531 0.8905546675651195)"><path d="M17.54 -3.03 C19.13 -2.17, 24.93 1.7, 27.77 3.62 M15.98 -0.61 C19.55 0.77, 24.79 1.94, 27.1 3.17" stroke="#000000" stroke-width="1" fill="none"></path></g></g><mask></mask></svg>